<?xml version="1.0" standalone="no"?>
<!DOCTYPE svg PUBLIC "-//W3C//DTD SVG 20010904//EN"
 "http://www.w3.org/TR/2001/REC-SVG-20010904/DTD/svg10.dtd">
<svg version="1.0" xmlns="http://www.w3.org/2000/svg"
 width="500.000000pt" height="500.000000pt" viewBox="0 0 500.000000 500.000000"
 preserveAspectRatio="xMidYMid meet">
<metadata>
Created by potrace 1.14, written by Peter Selinger 2001-2017
</metadata>
<g transform="translate(0.000000,500.000000) scale(0.100000,-0.100000)"
fill="#000000" stroke="none">
<path d="M2407 4634 c-1 -1 -47 -4 -103 -8 -243 -14 -572 -107 -804 -227 -88
-45 -219 -124 -247 -148 -7 -6 -15 -11 -18 -11 -6 0 -73 -48 -85 -60 -3 -3
-30 -25 -60 -50 -82 -66 -96 -79 -163 -149 -106 -109 -127 -133 -127 -137 0
-3 -9 -15 -21 -27 -75 -80 -231 -344 -294 -497 -15 -36 -34 -81 -42 -100 -36
-82 -108 -354 -98 -370 3 -5 1 -11 -5 -15 -5 -3 -10 -16 -10 -28 0 -41 -8
-136 -12 -144 -7 -13 -2 -360 6 -443 16 -166 67 -365 136 -540 52 -132 179
-370 201 -378 5 -2 9 -8 9 -13 0 -12 62 -100 119 -169 101 -122 191 -212 311
-309 25 -20 54 -44 64 -53 11 -10 28 -20 38 -24 10 -3 18 -10 18 -15 0 -5 5
-9 11 -9 6 0 25 -11 42 -24 45 -33 188 -118 203 -120 6 -1 18 -7 25 -12 8 -6
57 -29 109 -51 179 -77 369 -133 535 -157 23 -4 52 -9 65 -12 44 -10 402 -12
490 -3 106 11 249 40 360 74 47 14 92 27 100 30 13 3 90 33 174 67 272 111
564 325 770 562 28 33 59 68 68 78 10 10 45 59 79 110 34 51 70 105 80 120 51
74 171 339 168 372 0 5 3 12 8 15 14 9 73 219 87 308 9 57 17 109 22 148 3 22
7 51 9 65 7 43 7 342 0 405 -3 33 -11 85 -16 115 -6 30 -12 68 -14 83 -21 144
-154 505 -237 642 -114 188 -159 252 -243 350 -70 82 -171 181 -244 240 -34
28 -72 58 -84 69 -33 27 -204 139 -267 173 -269 149 -574 244 -855 269 -69 5
-253 12 -258 8z m-510 -790 c-3 -4 0 -12 7 -19 9 -9 12 -53 10 -166 -3 -163
-4 -175 -19 -199 -5 -8 -10 -21 -11 -28 -7 -43 -14 -15 -15 54 -2 287 0 347
13 355 15 10 24 12 15 3z m-78 -248 c2 -207 -6 -252 -30 -179 -14 42 -20 311
-8 319 5 2 6 11 3 19 -7 17 14 58 25 50 5 -2 10 -97 10 -209z m-909 -846 c13
-8 12 -11 -4 -23 -18 -13 -20 -29 -22 -172 -2 -115 -7 -168 -19 -197 -8 -21
-12 -45 -9 -51 5 -9 4 -9 -5 -1 -18 16 -19 400 -2 432 12 23 36 28 61 12z
m-28 -522 c-5 -13 -7 -92 -6 -175 1 -84 -2 -153 -6 -153 -25 0 -32 36 -32 157
1 207 -1 193 27 193 21 0 23 -3 17 -22z m322 13 c3 -3 -6 -8 -20 -9 -13 -1
-24 2 -24 6 0 10 38 13 44 3z m2671 -265 c-3 -6 -8 -19 -11 -28 -7 -21 -33
-24 -36 -5 -6 54 -5 56 27 49 15 -2 23 -9 20 -16z"/>
</g>
</svg>
